<svg width="1200" height="800" viewBox="0 0 1200 800" fill="none" xmlns="http://www.w3.org/2000/svg">
  <defs>
    <linearGradient id="c4_bg" x1="0" y1="0" x2="1200" y2="800" gradientUnits="userSpaceOnUse">
      <stop stop-color="#0A4FA9"/>
      <stop offset="1" stop-color="#072E64"/>
    </linearGradient>
  </defs>
  <rect width="1200" height="800" fill="url(#c4_bg)"/>
  <path d="M0 612L288 556L594 620L850 556L1200 638V800H0V612Z" fill="white" fill-opacity="0.14"/>
  <rect x="90" y="86" width="252" height="30" rx="15" fill="white" fill-opacity="0.4"/>
  <rect x="90" y="134" width="622" height="96" rx="22" fill="white" fill-opacity="0.94"/>
  <rect x="90" y="252" width="560" height="26" rx="13" fill="white" fill-opacity="0.56"/>
  <rect x="90" y="290" width="488" height="26" rx="13" fill="white" fill-opacity="0.56"/>
  <rect x="90" y="354" width="310" height="74" rx="37" fill="#FF6B35"/>
  <rect x="728" y="124" width="386" height="552" rx="30" fill="white" fill-opacity="0.12"/>
  <rect x="788" y="190" width="266" height="416" rx="24" fill="white" fill-opacity="0.24"/>
  <rect x="832" y="252" width="176" height="24" rx="12" fill="white" fill-opacity="0.88"/>
  <rect x="832" y="290" width="176" height="24" rx="12" fill="white" fill-opacity="0.88"/>
</svg>
